<?xml version="1.0" encoding="UTF-8" standalone="no"?>
<svg
   xmlns:dc="http://purl.org/dc/elements/1.1/"
   xmlns:cc="http://creativecommons.org/ns#"
   xmlns:rdf="http://www.w3.org/1999/02/22-rdf-syntax-ns#"
   xmlns:svg="http://www.w3.org/2000/svg"
   xmlns="http://www.w3.org/2000/svg"
   viewBox="0 0 561.49335 560.98669"
   height="560.98669"
   width="561.49335"
   xml:space="preserve"
   id="svg2"
   version="1.1"><metadata
     id="metadata8"><rdf:RDF><cc:Work
         rdf:about=""><dc:format>image/svg+xml</dc:format><dc:type
           rdf:resource="http://purl.org/dc/dcmitype/StillImage" /></cc:Work></rdf:RDF></metadata><defs
     id="defs6" /><g
     transform="matrix(1.3333333,0,0,-1.3333333,0,560.98667)"
     id="g10"><g
       transform="scale(0.1)"
       id="g12"><path
         id="path14"
         style="fill:#231f20;fill-opacity:1;fill-rule:nonzero;stroke:none"
         d="m 2823.4,2828.52 c -28.95,0 -50.03,0 -71.12,0 -432.91,0 -865.82,-1.05 -1298.71,1.25 -57.89,0.31 -76.04,-13.73 -75.67,-74.13 2.66,-432.89 1.42,-865.81 1.42,-1298.71 0,-22.9 0,-45.8 0,-69.49 486.96,0 965.18,0 1444.08,0 0,481.06 0,956.3 0,1441.08 z m -1540.51,96.43 c 0,33.39 0,58.55 0,83.72 0,368.68 -0.01,737.35 0.03,1106.03 0,17.14 -5.17,37.37 2.11,50.66 9.77,17.85 28.99,41.47 44.8,41.96 15.68,0.48 37.41,-21.86 46.68,-39.38 8.06,-15.23 2.75,-37.71 2.76,-56.99 0.07,-366.54 0.05,-733.07 0.05,-1099.6 0,-25.39 0,-50.78 0,-81.22 482.45,0 959.07,0 1446.9,0 0,23.27 0,47.85 0,72.44 0,368.68 -0.01,737.35 0.04,1106.03 0,19.28 -5.39,41.44 2.29,57.1 8.8,17.94 29.11,41.26 44.92,41.64 15.67,0.38 37.21,-22.13 46.41,-39.72 8.01,-15.3 2.72,-37.72 2.72,-57 0.07,-366.53 0.05,-733.07 0.05,-1099.6 0,-25.37 0,-50.75 0,-86.07 30.53,0 55.15,0 79.78,0 366.53,0 733.06,0 1099.6,-0.01 15,0 32.99,5.23 44.38,-1.2 22.38,-12.66 41.1,-31.81 61.34,-48.28 -21.17,-15.62 -40.99,-33.82 -64.05,-45.78 -11.84,-6.14 -29.45,-1.16 -44.46,-1.16 -364.39,0 -728.78,0 -1093.17,0 -25.05,0 -50.1,0 -79.23,0 0,-484.79 0,-961.52 0,-1446.9 27.71,0 52.56,0 77.42,0 370.82,0 741.64,0 1112.46,-0.03 17.14,0 37.18,5.15 50.71,-1.95 18.24,-9.56 46.05,-31.92 43.6,-42.99 -4.27,-19.28 -25.94,-39.03 -45.25,-49.27 -15.14,-8.03 -37.74,-2.17 -57.03,-2.17 -372.96,-0.03 -745.93,-1.05 -1118.88,1.13 -53.39,0.31 -68.69,-14.67 -68.37,-68.23 2.2,-370.809 1.16,-741.63 1.13,-1112.45 -0.01,-19.2889 5.75,-41.7616 -2.17,-57.0584 C 2910.49,29.3398 2889.2,15.9297 2872.79,0 c -15.42,16.9688 -34.7,31.918 -44.92,51.5898 -7.05,13.5391 -1.63,33.6016 -1.63,50.7502 -0.02,366.531 -0.02,733.058 -0.02,1099.6 0,25.11 0,50.22 0,79.72 -27.99,1.41 -48.87,3.38 -69.75,3.39 -435.13,0.18 -870.26,-1.25 -1305.37,1.69 -62.57,0.42 -73.21,-21.11 -72.89,-76.93 2.14,-368.662 1.14,-737.341 1.02,-1106.021 -0.01,-19.2499 4.51,-41.539 -3.54,-56.9179 -8.44,-16.1016 -29.6,-35.3125 -45.06,-35.1914 -15.52,0.1289 -36.42,19.582 -44.68,35.8008 -7.9,15.4883 -2.99,37.7187 -3,56.9885 -0.08,364.39 -0.06,728.781 -0.06,1093.171 0,25.58 0,51.17 0,87.55 -28.75,0 -53.54,0 -78.32,0 -368.679,0 -737.355,-0.03 -1106.0309,0.07 -19.2618,0.01 -41.2344,-4.48 -57.0352,3.21 -16.4297,8 -38.85546,29.91 -37.07812,42.75 2.48047,17.91 22.17192,38.31 39.80082,47.75 15.1289,8.1 37.6953,2.6 56.9764,2.6 366.531,0.06 733.067,0.05 1099.597,0.05 23.47,0 46.93,0 76.24,0 0,481.72 0,960 0,1446.9 -26,0 -51.05,0 -76.1,0 -368.678,0 -737.358,-0.05 -1106.0338,0.13 -21.3515,0.01 -44.7773,-3.19 -63.3789,4.47 -14.4257,5.94 -32.460894,27.23 -31.4882375,40.41 1.2460975,16.97 16.5820375,38.43 31.9804375,47.24 14.8516,8.49 37.5,4.06 56.7266,4.07 370.8129,0.15 741.6249,0.11 1112.4339,0.11 23.43,0 46.86,0 81.71,0" /></g></g></svg>